<mxfile host="app.diagrams.net" modified="2024-01-31T17:10:50.043Z" agent="Mozilla/5.0 (Windows NT 10.0; Win64; x64) AppleWebKit/537.36 (KHTML, like Gecko) Chrome/121.0.0.0 Safari/537.36" etag="sC5iVzQ-VfVSGxijrfQh" version="23.0.2" type="github">
  <diagram name="Página-1" id="rmHsDb4b7Zy-fFYQMJHF">
    <mxGraphModel dx="1195" dy="1015" grid="0" gridSize="10" guides="1" tooltips="1" connect="1" arrows="1" fold="1" page="0" pageScale="1" pageWidth="827" pageHeight="1169" background="#ffffff" math="0" shadow="0">
      <root>
        <mxCell id="0" />
        <mxCell id="1" parent="0" />
        <mxCell id="ib3yN-KZ3-Id2-LQBJem-1" value="Obtener todos los Wires pendientes de pago" style="rounded=1;whiteSpace=wrap;html=1;" vertex="1" parent="1">
          <mxGeometry x="154" y="186" width="174" height="60" as="geometry" />
        </mxCell>
        <mxCell id="ib3yN-KZ3-Id2-LQBJem-3" value="WDE&lt;br&gt;SP&lt;br&gt;GetWiresPendingPayment" style="shape=cylinder3;whiteSpace=wrap;html=1;boundedLbl=1;backgroundOutline=1;size=15;" vertex="1" parent="1">
          <mxGeometry x="401" y="32" width="180" height="97" as="geometry" />
        </mxCell>
        <mxCell id="ib3yN-KZ3-Id2-LQBJem-5" value="" style="endArrow=classic;html=1;rounded=0;exitX=1;exitY=0.25;exitDx=0;exitDy=0;entryX=0.145;entryY=1;entryDx=0;entryDy=-4.35;entryPerimeter=0;" edge="1" parent="1" source="ib3yN-KZ3-Id2-LQBJem-1" target="ib3yN-KZ3-Id2-LQBJem-3">
          <mxGeometry width="50" height="50" relative="1" as="geometry">
            <mxPoint x="355" y="360" as="sourcePoint" />
            <mxPoint x="439" y="230" as="targetPoint" />
          </mxGeometry>
        </mxCell>
        <mxCell id="ib3yN-KZ3-Id2-LQBJem-6" value="1) MaxWirePendingPaymentToSelect&lt;br&gt;2) RetriesUntilCancel" style="edgeLabel;html=1;align=left;verticalAlign=middle;resizable=0;points=[];" vertex="1" connectable="0" parent="ib3yN-KZ3-Id2-LQBJem-5">
          <mxGeometry x="-0.0193" y="-2" relative="1" as="geometry">
            <mxPoint x="-162" y="-36" as="offset" />
          </mxGeometry>
        </mxCell>
        <mxCell id="ib3yN-KZ3-Id2-LQBJem-7" value="Actualiza los wires al estado cancelado (&amp;nbsp;WirePendingPaymentStatusId = @cStatusCancelled ) los que tengan la cantidad de reintentos indicado en el parámetro RetriesUntilCancel&lt;br&gt;&lt;br&gt;" style="text;html=1;strokeColor=none;fillColor=none;align=left;verticalAlign=top;whiteSpace=wrap;rounded=0;" vertex="1" parent="1">
          <mxGeometry x="603" y="41" width="303" height="187" as="geometry" />
        </mxCell>
        <mxCell id="ib3yN-KZ3-Id2-LQBJem-8" value="WDE&lt;br&gt;WiresPendingPayment" style="shape=cylinder3;whiteSpace=wrap;html=1;boundedLbl=1;backgroundOutline=1;size=15;" vertex="1" parent="1">
          <mxGeometry x="610" y="-108" width="135" height="88" as="geometry" />
        </mxCell>
        <mxCell id="ib3yN-KZ3-Id2-LQBJem-9" value="WDE&lt;br&gt;WirePendingPaymentRetryLog" style="shape=cylinder3;whiteSpace=wrap;html=1;boundedLbl=1;backgroundOutline=1;size=15;" vertex="1" parent="1">
          <mxGeometry x="895" y="-108" width="178" height="88" as="geometry" />
        </mxCell>
        <mxCell id="ib3yN-KZ3-Id2-LQBJem-10" value="" style="endArrow=none;html=1;rounded=0;entryX=1;entryY=0.5;entryDx=0;entryDy=0;entryPerimeter=0;exitX=0;exitY=0.5;exitDx=0;exitDy=0;exitPerimeter=0;" edge="1" parent="1" source="ib3yN-KZ3-Id2-LQBJem-9" target="ib3yN-KZ3-Id2-LQBJem-8">
          <mxGeometry width="50" height="50" relative="1" as="geometry">
            <mxPoint x="537" y="85" as="sourcePoint" />
            <mxPoint x="587" y="35" as="targetPoint" />
          </mxGeometry>
        </mxCell>
        <mxCell id="ib3yN-KZ3-Id2-LQBJem-11" value="WirePendingPaymentId" style="edgeLabel;html=1;align=center;verticalAlign=middle;resizable=0;points=[];" vertex="1" connectable="0" parent="ib3yN-KZ3-Id2-LQBJem-10">
          <mxGeometry x="0.435" relative="1" as="geometry">
            <mxPoint x="18" y="-12" as="offset" />
          </mxGeometry>
        </mxCell>
        <mxCell id="ib3yN-KZ3-Id2-LQBJem-12" value="WDE&lt;br&gt;ProcessedWires" style="shape=cylinder3;whiteSpace=wrap;html=1;boundedLbl=1;backgroundOutline=1;size=15;" vertex="1" parent="1">
          <mxGeometry x="771" y="-264" width="135" height="88" as="geometry" />
        </mxCell>
        <mxCell id="ib3yN-KZ3-Id2-LQBJem-13" value="" style="endArrow=none;html=1;rounded=0;exitX=0.5;exitY=0;exitDx=0;exitDy=0;exitPerimeter=0;entryX=0;entryY=0.5;entryDx=0;entryDy=0;entryPerimeter=0;edgeStyle=orthogonalEdgeStyle;" edge="1" parent="1" source="ib3yN-KZ3-Id2-LQBJem-8" target="ib3yN-KZ3-Id2-LQBJem-12">
          <mxGeometry width="50" height="50" relative="1" as="geometry">
            <mxPoint x="537" y="-82" as="sourcePoint" />
            <mxPoint x="587" y="-132" as="targetPoint" />
          </mxGeometry>
        </mxCell>
        <mxCell id="ib3yN-KZ3-Id2-LQBJem-14" value="WireDataEntryId" style="ellipse;whiteSpace=wrap;html=1;" vertex="1" parent="1">
          <mxGeometry x="531" y="-201" width="103" height="56" as="geometry" />
        </mxCell>
        <mxCell id="ib3yN-KZ3-Id2-LQBJem-15" value="" style="endArrow=none;dashed=1;html=1;rounded=0;entryX=0.5;entryY=1;entryDx=0;entryDy=0;exitX=0.145;exitY=0;exitDx=0;exitDy=4.35;exitPerimeter=0;" edge="1" parent="1" source="ib3yN-KZ3-Id2-LQBJem-8" target="ib3yN-KZ3-Id2-LQBJem-14">
          <mxGeometry width="50" height="50" relative="1" as="geometry">
            <mxPoint x="537" y="-82" as="sourcePoint" />
            <mxPoint x="587" y="-132" as="targetPoint" />
          </mxGeometry>
        </mxCell>
        <mxCell id="ib3yN-KZ3-Id2-LQBJem-16" value="WireID" style="ellipse;whiteSpace=wrap;html=1;" vertex="1" parent="1">
          <mxGeometry x="662" y="-300" width="78" height="44" as="geometry" />
        </mxCell>
        <mxCell id="ib3yN-KZ3-Id2-LQBJem-17" value="" style="endArrow=none;dashed=1;html=1;rounded=0;entryX=1;entryY=1;entryDx=0;entryDy=0;exitX=0;exitY=0;exitDx=0;exitDy=29.5;exitPerimeter=0;" edge="1" parent="1" source="ib3yN-KZ3-Id2-LQBJem-12" target="ib3yN-KZ3-Id2-LQBJem-16">
          <mxGeometry width="50" height="50" relative="1" as="geometry">
            <mxPoint x="537" y="-82" as="sourcePoint" />
            <mxPoint x="587" y="-132" as="targetPoint" />
          </mxGeometry>
        </mxCell>
        <mxCell id="ib3yN-KZ3-Id2-LQBJem-18" value="Se corresponden. Deben tener el mismo valor" style="text;html=1;strokeColor=none;fillColor=none;align=center;verticalAlign=middle;whiteSpace=wrap;rounded=0;" vertex="1" parent="1">
          <mxGeometry x="420" y="-274" width="190" height="28" as="geometry" />
        </mxCell>
        <mxCell id="ib3yN-KZ3-Id2-LQBJem-19" value="" style="endArrow=none;dashed=1;html=1;rounded=0;exitX=0.75;exitY=1;exitDx=0;exitDy=0;entryX=0.5;entryY=0;entryDx=0;entryDy=0;" edge="1" parent="1" source="ib3yN-KZ3-Id2-LQBJem-18" target="ib3yN-KZ3-Id2-LQBJem-14">
          <mxGeometry width="50" height="50" relative="1" as="geometry">
            <mxPoint x="537" y="-82" as="sourcePoint" />
            <mxPoint x="587" y="-132" as="targetPoint" />
          </mxGeometry>
        </mxCell>
        <mxCell id="ib3yN-KZ3-Id2-LQBJem-21" value="" style="endArrow=none;dashed=1;html=1;rounded=0;exitX=1;exitY=0.5;exitDx=0;exitDy=0;entryX=0;entryY=0.5;entryDx=0;entryDy=0;" edge="1" parent="1" source="ib3yN-KZ3-Id2-LQBJem-18" target="ib3yN-KZ3-Id2-LQBJem-16">
          <mxGeometry width="50" height="50" relative="1" as="geometry">
            <mxPoint x="537" y="-82" as="sourcePoint" />
            <mxPoint x="587" y="-132" as="targetPoint" />
          </mxGeometry>
        </mxCell>
        <mxCell id="ib3yN-KZ3-Id2-LQBJem-22" value="WirePendingPaymentStatusId" style="ellipse;whiteSpace=wrap;html=1;" vertex="1" parent="1">
          <mxGeometry x="367" y="-155" width="183" height="56" as="geometry" />
        </mxCell>
        <mxCell id="ib3yN-KZ3-Id2-LQBJem-23" value="" style="endArrow=none;dashed=1;html=1;rounded=0;entryX=1;entryY=1;entryDx=0;entryDy=0;exitX=0;exitY=0;exitDx=0;exitDy=29.5;exitPerimeter=0;" edge="1" parent="1" source="ib3yN-KZ3-Id2-LQBJem-8" target="ib3yN-KZ3-Id2-LQBJem-22">
          <mxGeometry width="50" height="50" relative="1" as="geometry">
            <mxPoint x="640" y="-94" as="sourcePoint" />
            <mxPoint x="593" y="-135" as="targetPoint" />
          </mxGeometry>
        </mxCell>
      </root>
    </mxGraphModel>
  </diagram>
</mxfile>
